<svg xmlns="http://www.w3.org/2000/svg" xmlns:xlink="http://www.w3.org/1999/xlink" width="160" zoomAndPan="magnify" viewBox="0 0 120 119.999999" height="160" preserveAspectRatio="xMidYMid meet" version="1.0"><defs><clipPath id="46ba4ac673"><path d="M 3.152344 25.800781 L 116.214844 25.800781 L 116.214844 120 L 3.152344 120 Z M 3.152344 25.800781 " clip-rule="nonzero"/></clipPath><clipPath id="987b9225c8"><path d="M 58 29.851562 C 58.746094 29.851562 59.617188 30.046875 60.625 30.558594 L 68.195312 34.058594 L 59.933594 40.96875 L 54.839844 36.71875 L 54.816406 36.710938 L 54.816406 36.695312 C 53.335938 35.460938 53.613281 33.210938 54.621094 31.722656 C 54.976562 31.1875 56.0625 29.859375 58.007812 29.859375 Z M 42.828125 33.035156 C 43.789062 33.035156 44.75 33.359375 45.53125 34.011719 L 48.214844 36.25 L 48.222656 36.25 L 52.472656 39.8125 L 53.78125 40.917969 L 59.519531 45.714844 C 60.449219 46.488281 61.035156 47.675781 61.082031 48.878906 C 61.125 49.886719 60.78125 50.800781 60.015625 51.582031 C 59.292969 52.417969 58.273438 52.941406 57.152344 53.03125 C 57.023438 53.046875 56.890625 53.046875 56.761719 53.046875 C 55.777344 53.046875 54.839844 52.703125 54.097656 52.078125 C 54.042969 52.035156 53.992188 52.011719 53.9375 52.011719 C 53.902344 52.011719 53.863281 52.019531 53.824219 52.039062 C 53.53125 51.695312 53.230469 51.355469 52.886719 51.0625 L 41.597656 41.628906 C 41.582031 41.621094 41.574219 41.621094 41.574219 41.605469 L 40.101562 40.390625 C 38.335938 38.910156 38.109375 36.265625 39.605469 34.515625 C 40.441406 33.546875 41.625 33.042969 42.828125 33.042969 Z M 36.359375 43.605469 C 37.335938 43.605469 38.296875 43.941406 39.050781 44.574219 L 39.074219 44.582031 L 50.363281 54.015625 C 51.300781 54.804688 51.878906 55.984375 51.941406 57.195312 C 51.976562 58.199219 51.640625 59.132812 50.875 59.898438 C 50.039062 60.875 48.84375 61.378906 47.644531 61.378906 C 46.683594 61.378906 45.71875 61.054688 44.9375 60.402344 L 36.765625 53.558594 L 36.75 53.558594 L 33.632812 50.953125 C 32.785156 50.246094 32.265625 49.238281 32.175781 48.121094 C 32.070312 47.007812 32.417969 45.925781 33.136719 45.085938 C 33.859375 44.242188 34.875 43.71875 36 43.628906 C 36.121094 43.621094 36.242188 43.613281 36.359375 43.613281 Z M 31.566406 55.570312 C 32.558594 55.570312 33.507812 55.910156 34.265625 56.546875 C 34.273438 56.546875 34.273438 56.546875 34.289062 56.5625 L 42.414062 63.355469 C 44.1875 64.832031 44.40625 67.46875 42.925781 69.226562 C 42.09375 70.195312 40.90625 70.699219 39.703125 70.699219 C 38.742188 70.699219 37.78125 70.378906 36.992188 69.722656 L 32.664062 66.101562 L 32.648438 66.085938 L 28.832031 62.902344 C 27.0625 61.414062 26.84375 58.785156 28.339844 57.035156 C 29.058594 56.1875 30.074219 55.667969 31.199219 55.578125 C 31.320312 55.570312 31.449219 55.5625 31.566406 55.5625 Z M 27.40625 68.078125 C 28.351562 68.078125 29.300781 68.394531 30.082031 69.03125 L 37.210938 74.988281 C 38.066406 75.695312 38.589844 76.703125 38.683594 77.8125 C 38.773438 78.925781 38.425781 80.007812 37.707031 80.847656 C 36.984375 81.691406 35.96875 82.214844 34.851562 82.304688 C 34.730469 82.3125 34.609375 82.320312 34.488281 82.320312 C 33.492188 82.320312 32.542969 81.976562 31.777344 81.34375 L 24.6875 75.417969 C 22.914062 73.929688 22.695312 71.300781 24.191406 69.542969 C 25.019531 68.574219 26.203125 68.070312 27.40625 68.070312 Z M 58.015625 25.960938 C 55.117188 25.960938 52.734375 27.515625 51.347656 29.558594 C 50.671875 30.558594 50.273438 31.632812 50.046875 32.714844 L 48.054688 31.054688 C 46.539062 29.785156 44.683594 29.160156 42.835938 29.160156 C 40.523438 29.160156 38.214844 30.128906 36.609375 32.015625 C 34.707031 34.253906 34.257812 37.226562 35.152344 39.820312 C 33.191406 40.113281 31.441406 41.082031 30.15625 42.578125 C 28.765625 44.222656 28.089844 46.292969 28.277344 48.441406 C 28.382812 49.71875 28.789062 50.914062 29.433594 51.964844 C 27.894531 52.386719 26.453125 53.242188 25.339844 54.542969 C 22.863281 57.449219 22.839844 61.625 25.046875 64.554688 C 23.597656 64.984375 22.253906 65.816406 21.210938 67.058594 C 19.007812 69.640625 18.753906 73.214844 20.269531 76.039062 L 4.316406 89.367188 C 3.488281 90.066406 3.382812 91.28125 4.082031 92.101562 C 4.464844 92.550781 5.023438 92.785156 5.578125 92.785156 C 6.027344 92.785156 6.472656 92.632812 6.839844 92.332031 L 22.855469 78.964844 L 29.261719 84.320312 C 30.734375 85.542969 32.566406 86.203125 34.476562 86.203125 C 34.707031 86.203125 34.949219 86.195312 35.179688 86.167969 C 37.351562 85.980469 39.304688 84.988281 40.703125 83.351562 C 42.097656 81.710938 42.769531 79.640625 42.582031 77.5 C 42.488281 76.363281 42.152344 75.296875 41.617188 74.320312 C 43.226562 73.929688 44.75 73.066406 45.90625 71.722656 C 47.484375 69.859375 48.042969 67.476562 47.671875 65.253906 C 49.957031 65.253906 52.203125 64.316406 53.75 62.503906 C 55.199219 61.078125 55.945312 59.132812 55.847656 57.019531 C 55.839844 56.953125 55.808594 56.878906 55.808594 56.8125 C 56.132812 56.855469 56.445312 56.902344 56.769531 56.902344 C 57.003906 56.902344 57.242188 56.894531 57.476562 56.878906 C 59.648438 56.691406 61.601562 55.683594 62.878906 54.175781 C 64.328125 52.746094 65.078125 50.800781 64.988281 48.707031 C 64.90625 46.78125 64.132812 44.988281 62.855469 43.566406 L 74.300781 34.011719 C 75.0625 33.390625 76 33.042969 76.984375 33.042969 C 77.113281 33.042969 77.246094 33.050781 77.375 33.058594 C 78.5 33.148438 79.523438 33.660156 80.238281 34.507812 C 81.730469 36.273438 81.5 38.902344 79.742188 40.382812 L 78.261719 41.621094 C 77.433594 42.320312 77.328125 43.539062 78.027344 44.355469 C 78.410156 44.808594 78.96875 45.039062 79.523438 45.039062 C 79.972656 45.039062 80.425781 44.890625 80.792969 44.582031 L 80.800781 44.582031 C 81.566406 43.941406 82.527344 43.605469 83.527344 43.605469 C 83.632812 43.605469 83.746094 43.613281 83.851562 43.621094 C 84.976562 43.710938 85.996094 44.234375 86.710938 45.078125 C 88.207031 46.84375 87.972656 49.472656 86.199219 50.953125 L 83.0625 53.574219 L 83.0625 53.582031 C 82.234375 54.265625 82.128906 55.496094 82.828125 56.308594 C 83.21875 56.765625 83.773438 57 84.332031 57 C 84.773438 57 85.222656 56.847656 85.585938 56.539062 L 85.59375 56.539062 C 86.351562 55.894531 87.34375 55.5625 88.320312 55.5625 C 88.433594 55.5625 88.535156 55.570312 88.648438 55.578125 C 89.777344 55.667969 90.78125 56.195312 91.503906 57.027344 C 93 58.792969 92.78125 61.421875 91.007812 62.902344 L 87.191406 66.085938 C 86.367188 66.769531 86.261719 68.003906 86.960938 68.820312 C 87.34375 69.273438 87.898438 69.503906 88.453125 69.503906 C 88.898438 69.503906 89.347656 69.355469 89.714844 69.054688 L 89.714844 69.039062 C 90.484375 68.410156 91.421875 68.070312 92.414062 68.070312 C 92.535156 68.070312 92.652344 68.078125 92.78125 68.085938 C 93.90625 68.175781 94.929688 68.6875 95.644531 69.542969 C 96.363281 70.390625 96.710938 71.464844 96.621094 72.570312 C 96.53125 73.683594 96.003906 74.6875 95.148438 75.410156 L 77.351562 90.28125 C 72.972656 93.941406 69.050781 95.15625 64.648438 95.15625 C 61.765625 95.15625 58.671875 94.632812 55.109375 93.933594 C 54.980469 93.910156 54.855469 93.894531 54.734375 93.894531 C 54.269531 93.894531 53.824219 94.0625 53.464844 94.363281 L 26.664062 116.746094 C 25.84375 117.445312 25.738281 118.664062 26.429688 119.480469 C 26.8125 119.925781 27.347656 120.15625 27.886719 120.164062 L 27.953125 120.164062 C 28.390625 120.15625 28.820312 120.007812 29.1875 119.714844 L 55.269531 97.921875 C 58.585938 98.554688 61.667969 99.019531 64.628906 99.019531 C 64.972656 99.019531 65.324219 99.011719 65.664062 98.996094 L 90.671875 119.714844 C 91.03125 120.015625 91.464844 120.15625 91.902344 120.164062 L 91.96875 120.164062 C 92.511719 120.15625 93.058594 119.925781 93.425781 119.464844 C 94.125 118.65625 94.019531 117.421875 93.1875 116.738281 L 70.832031 98.253906 C 73.800781 97.417969 76.757812 95.863281 79.875 93.265625 L 96.996094 78.949219 L 112.996094 92.328125 C 113.363281 92.625 113.820312 92.777344 114.257812 92.777344 C 114.8125 92.777344 115.367188 92.542969 115.75 92.09375 C 116.449219 91.265625 116.34375 90.050781 115.519531 89.359375 L 99.578125 76.039062 C 100.097656 75.09375 100.429688 74.035156 100.519531 72.921875 C 100.707031 70.773438 100.03125 68.695312 98.625 67.058594 C 97.605469 65.855469 96.28125 64.992188 94.785156 64.554688 C 97.003906 61.625 96.980469 57.464844 94.492188 54.542969 C 93.410156 53.28125 92 52.386719 90.414062 51.964844 C 92.179688 49.089844 92.007812 45.304688 89.6875 42.578125 C 88.410156 41.082031 86.652344 40.105469 84.691406 39.820312 C 85.585938 37.234375 85.132812 34.253906 83.234375 32.015625 C 81.84375 30.371094 79.867188 29.371094 77.707031 29.191406 C 77.464844 29.167969 77.230469 29.160156 76.992188 29.160156 C 75.070312 29.160156 73.257812 29.828125 71.777344 31.054688 L 71.476562 31.308594 L 62.34375 27.078125 C 60.820312 26.296875 59.363281 25.960938 58.007812 25.960938 Z M 58.015625 25.960938 " clip-rule="nonzero"/></clipPath><clipPath id="2f93e38015"><path d="M 0.359375 0.921875 L 113.214844 0.921875 L 113.214844 95 L 0.359375 95 Z M 0.359375 0.921875 " clip-rule="nonzero"/></clipPath><clipPath id="7673f6c8c5"><path d="M 55 4.851562 C 55.746094 4.851562 56.617188 5.046875 57.625 5.558594 L 65.195312 9.058594 L 56.933594 15.96875 L 51.839844 11.71875 L 51.816406 11.710938 L 51.816406 11.695312 C 50.335938 10.460938 50.613281 8.210938 51.621094 6.722656 C 51.976562 6.1875 53.0625 4.859375 55.007812 4.859375 Z M 39.828125 8.035156 C 40.789062 8.035156 41.75 8.359375 42.53125 9.011719 L 45.214844 11.25 L 45.222656 11.25 L 49.472656 14.8125 L 50.78125 15.917969 L 56.519531 20.714844 C 57.449219 21.488281 58.035156 22.675781 58.082031 23.878906 C 58.125 24.886719 57.78125 25.800781 57.015625 26.582031 C 56.292969 27.417969 55.273438 27.941406 54.152344 28.03125 C 54.023438 28.046875 53.890625 28.046875 53.761719 28.046875 C 52.777344 28.046875 51.839844 27.703125 51.097656 27.078125 C 51.042969 27.035156 50.992188 27.011719 50.9375 27.011719 C 50.902344 27.011719 50.863281 27.019531 50.824219 27.039062 C 50.53125 26.695312 50.230469 26.355469 49.886719 26.0625 L 38.597656 16.628906 C 38.582031 16.621094 38.574219 16.621094 38.574219 16.605469 L 37.101562 15.390625 C 35.335938 13.910156 35.109375 11.265625 36.605469 9.515625 C 37.441406 8.546875 38.625 8.042969 39.828125 8.042969 Z M 33.359375 18.605469 C 34.335938 18.605469 35.296875 18.941406 36.050781 19.574219 L 36.074219 19.582031 L 47.363281 29.015625 C 48.300781 29.804688 48.878906 30.984375 48.941406 32.195312 C 48.976562 33.199219 48.640625 34.132812 47.875 34.898438 C 47.039062 35.875 45.84375 36.378906 44.644531 36.378906 C 43.683594 36.378906 42.71875 36.054688 41.9375 35.402344 L 33.765625 28.558594 L 33.75 28.558594 L 30.632812 25.953125 C 29.785156 25.246094 29.265625 24.238281 29.175781 23.121094 C 29.070312 22.007812 29.417969 20.925781 30.136719 20.085938 C 30.859375 19.242188 31.875 18.71875 33 18.628906 C 33.121094 18.621094 33.242188 18.613281 33.359375 18.613281 Z M 28.566406 30.570312 C 29.558594 30.570312 30.507812 30.910156 31.265625 31.546875 C 31.273438 31.546875 31.273438 31.546875 31.289062 31.5625 L 39.414062 38.355469 C 41.1875 39.832031 41.40625 42.46875 39.925781 44.226562 C 39.09375 45.195312 37.90625 45.699219 36.703125 45.699219 C 35.742188 45.699219 34.78125 45.378906 33.992188 44.722656 L 29.664062 41.101562 L 29.648438 41.085938 L 25.832031 37.902344 C 24.0625 36.414062 23.84375 33.785156 25.339844 32.035156 C 26.058594 31.1875 27.074219 30.667969 28.199219 30.578125 C 28.320312 30.570312 28.449219 30.5625 28.566406 30.5625 Z M 24.40625 43.078125 C 25.351562 43.078125 26.300781 43.394531 27.082031 44.03125 L 34.210938 49.988281 C 35.066406 50.695312 35.589844 51.703125 35.683594 52.8125 C 35.773438 53.925781 35.425781 55.007812 34.707031 55.847656 C 33.984375 56.691406 32.96875 57.214844 31.851562 57.304688 C 31.730469 57.3125 31.609375 57.320312 31.488281 57.320312 C 30.492188 57.320312 29.542969 56.976562 28.777344 56.34375 L 21.6875 50.417969 C 19.914062 48.929688 19.695312 46.300781 21.191406 44.542969 C 22.019531 43.574219 23.203125 43.070312 24.40625 43.070312 Z M 55.015625 0.960938 C 52.117188 0.960938 49.734375 2.515625 48.347656 4.558594 C 47.671875 5.558594 47.273438 6.632812 47.046875 7.714844 L 45.054688 6.054688 C 43.539062 4.785156 41.683594 4.160156 39.835938 4.160156 C 37.523438 4.160156 35.214844 5.128906 33.609375 7.015625 C 31.707031 9.253906 31.257812 12.226562 32.152344 14.820312 C 30.191406 15.113281 28.441406 16.082031 27.15625 17.578125 C 25.765625 19.222656 25.089844 21.292969 25.277344 23.441406 C 25.382812 24.71875 25.789062 25.914062 26.433594 26.964844 C 24.894531 27.386719 23.453125 28.242188 22.339844 29.542969 C 19.863281 32.449219 19.839844 36.625 22.046875 39.554688 C 20.597656 39.984375 19.253906 40.816406 18.210938 42.058594 C 16.007812 44.640625 15.753906 48.214844 17.269531 51.039062 L 1.316406 64.367188 C 0.488281 65.066406 0.382812 66.28125 1.082031 67.101562 C 1.464844 67.550781 2.023438 67.785156 2.578125 67.785156 C 3.027344 67.785156 3.472656 67.632812 3.839844 67.332031 L 19.855469 53.964844 L 26.261719 59.320312 C 27.734375 60.542969 29.566406 61.203125 31.476562 61.203125 C 31.707031 61.203125 31.949219 61.195312 32.179688 61.167969 C 34.351562 60.980469 36.304688 59.988281 37.703125 58.351562 C 39.097656 56.710938 39.769531 54.640625 39.582031 52.5 C 39.488281 51.363281 39.152344 50.296875 38.617188 49.320312 C 40.226562 48.929688 41.75 48.066406 42.90625 46.722656 C 44.484375 44.859375 45.042969 42.476562 44.671875 40.253906 C 46.957031 40.253906 49.203125 39.316406 50.75 37.503906 C 52.199219 36.078125 52.945312 34.132812 52.847656 32.019531 C 52.839844 31.953125 52.808594 31.878906 52.808594 31.8125 C 53.132812 31.855469 53.445312 31.902344 53.769531 31.902344 C 54.003906 31.902344 54.242188 31.894531 54.476562 31.878906 C 56.648438 31.691406 58.601562 30.683594 59.878906 29.175781 C 61.328125 27.746094 62.078125 25.800781 61.988281 23.707031 C 61.90625 21.78125 61.132812 19.988281 59.855469 18.566406 L 71.300781 9.011719 C 72.0625 8.390625 73 8.042969 73.984375 8.042969 C 74.113281 8.042969 74.246094 8.050781 74.375 8.058594 C 75.5 8.148438 76.523438 8.660156 77.238281 9.507812 C 78.730469 11.273438 78.5 13.902344 76.742188 15.382812 L 75.261719 16.621094 C 74.433594 17.320312 74.328125 18.539062 75.027344 19.355469 C 75.410156 19.808594 75.96875 20.039062 76.523438 20.039062 C 76.972656 20.039062 77.425781 19.890625 77.792969 19.582031 L 77.800781 19.582031 C 78.566406 18.941406 79.527344 18.605469 80.527344 18.605469 C 80.632812 18.605469 80.746094 18.613281 80.851562 18.621094 C 81.976562 18.710938 82.996094 19.234375 83.710938 20.078125 C 85.207031 21.84375 84.972656 24.472656 83.199219 25.953125 L 80.0625 28.574219 L 80.0625 28.582031 C 79.234375 29.265625 79.128906 30.496094 79.828125 31.308594 C 80.21875 31.765625 80.773438 32 81.332031 32 C 81.773438 32 82.222656 31.847656 82.585938 31.539062 L 82.59375 31.539062 C 83.351562 30.894531 84.34375 30.5625 85.320312 30.5625 C 85.433594 30.5625 85.535156 30.570312 85.648438 30.578125 C 86.777344 30.667969 87.78125 31.195312 88.503906 32.027344 C 90 33.792969 89.78125 36.421875 88.007812 37.902344 L 84.191406 41.085938 C 83.367188 41.769531 83.261719 43.003906 83.960938 43.820312 C 84.34375 44.273438 84.898438 44.503906 85.453125 44.503906 C 85.898438 44.503906 86.347656 44.355469 86.714844 44.054688 L 86.714844 44.039062 C 87.484375 43.410156 88.421875 43.070312 89.414062 43.070312 C 89.535156 43.070312 89.652344 43.078125 89.78125 43.085938 C 90.90625 43.175781 91.929688 43.6875 92.644531 44.542969 C 93.363281 45.390625 93.710938 46.464844 93.621094 47.570312 C 93.53125 48.683594 93.003906 49.6875 92.148438 50.410156 L 74.351562 65.28125 C 69.972656 68.941406 66.050781 70.15625 61.648438 70.15625 C 58.765625 70.15625 55.671875 69.632812 52.109375 68.933594 C 51.980469 68.910156 51.855469 68.894531 51.734375 68.894531 C 51.269531 68.894531 50.824219 69.0625 50.464844 69.363281 L 23.664062 91.746094 C 22.84375 92.445312 22.738281 93.664062 23.429688 94.480469 C 23.8125 94.925781 24.347656 95.15625 24.886719 95.164062 L 24.953125 95.164062 C 25.390625 95.15625 25.820312 95.007812 26.1875 94.714844 L 52.269531 72.921875 C 55.585938 73.554688 58.667969 74.019531 61.628906 74.019531 C 61.972656 74.019531 62.324219 74.011719 62.664062 73.996094 L 87.671875 94.714844 C 88.03125 95.015625 88.464844 95.15625 88.902344 95.164062 L 88.96875 95.164062 C 89.511719 95.15625 90.058594 94.925781 90.425781 94.464844 C 91.125 93.65625 91.019531 92.421875 90.1875 91.738281 L 67.832031 73.253906 C 70.800781 72.417969 73.757812 70.863281 76.875 68.265625 L 93.996094 53.949219 L 109.996094 67.328125 C 110.363281 67.625 110.820312 67.777344 111.257812 67.777344 C 111.8125 67.777344 112.367188 67.542969 112.75 67.09375 C 113.449219 66.265625 113.34375 65.050781 112.519531 64.359375 L 96.578125 51.039062 C 97.097656 50.09375 97.429688 49.035156 97.519531 47.921875 C 97.707031 45.773438 97.03125 43.695312 95.625 42.058594 C 94.605469 40.855469 93.28125 39.992188 91.785156 39.554688 C 94.003906 36.625 93.980469 32.464844 91.492188 29.542969 C 90.410156 28.28125 89 27.386719 87.414062 26.964844 C 89.179688 24.089844 89.007812 20.304688 86.6875 17.578125 C 85.410156 16.082031 83.652344 15.105469 81.691406 14.820312 C 82.585938 12.234375 82.132812 9.253906 80.234375 7.015625 C 78.84375 5.371094 76.867188 4.371094 74.707031 4.191406 C 74.464844 4.167969 74.230469 4.160156 73.992188 4.160156 C 72.070312 4.160156 70.257812 4.828125 68.777344 6.054688 L 68.476562 6.308594 L 59.34375 2.078125 C 57.820312 1.296875 56.363281 0.960938 55.007812 0.960938 Z M 55.015625 0.960938 " clip-rule="nonzero"/></clipPath><clipPath id="d1a1eec4b6"><rect x="0" width="114" y="0" height="95"/></clipPath><clipPath id="f0f0e1c0e7"><path d="M 65.546875 0 L 69.769531 0 L 69.769531 14.539062 L 65.546875 14.539062 Z M 65.546875 0 " clip-rule="nonzero"/></clipPath><clipPath id="3ca0d922fa"><path d="M 67.730469 0 C 66.671875 0.015625 65.804688 0.878906 65.804688 1.945312 L 65.804688 12.140625 C 65.804688 13.214844 66.683594 14.078125 67.765625 14.078125 C 68.847656 14.078125 69.726562 13.21875 69.726562 12.140625 L 69.726562 1.945312 C 69.726562 0.878906 68.863281 0.015625 67.804688 0 Z M 67.730469 0 " clip-rule="nonzero"/></clipPath><clipPath id="2926a35605"><path d="M 0.761719 0 L 4.769531 0 L 4.769531 14.160156 L 0.761719 14.160156 Z M 0.761719 0 " clip-rule="nonzero"/></clipPath><clipPath id="70f7470ee3"><path d="M 2.730469 0 C 1.671875 0.015625 0.804688 0.878906 0.804688 1.945312 L 0.804688 12.140625 C 0.804688 13.214844 1.683594 14.078125 2.765625 14.078125 C 3.847656 14.078125 4.726562 13.21875 4.726562 12.140625 L 4.726562 1.945312 C 4.726562 0.878906 3.863281 0.015625 2.804688 0 Z M 2.730469 0 " clip-rule="nonzero"/></clipPath><clipPath id="36e780e744"><rect x="0" width="5" y="0" height="15"/></clipPath><clipPath id="b76bcb54a8"><path d="M 91.351562 7.503906 L 102 7.503906 L 102 19.699219 L 91.351562 19.699219 Z M 91.351562 7.503906 " clip-rule="nonzero"/></clipPath><clipPath id="93cca77bb5"><path d="M 93.703125 19.652344 C 94.304688 19.652344 94.898438 19.371094 95.28125 18.863281 L 101.382812 10.644531 C 102.019531 9.773438 101.832031 8.570312 100.953125 7.933594 C 100.082031 7.292969 98.859375 7.488281 98.21875 8.351562 L 92.136719 16.570312 C 91.496094 17.441406 91.683594 18.644531 92.554688 19.28125 C 92.902344 19.539062 93.308594 19.652344 93.710938 19.652344 " clip-rule="nonzero"/></clipPath><clipPath id="b192cfdc23"><path d="M 0.441406 0.503906 L 11 0.503906 L 11 12.679688 L 0.441406 12.679688 Z M 0.441406 0.503906 " clip-rule="nonzero"/></clipPath><clipPath id="07cc9d5e35"><path d="M 2.703125 12.652344 C 3.304688 12.652344 3.898438 12.371094 4.28125 11.863281 L 10.382812 3.644531 C 11.019531 2.773438 10.832031 1.570312 9.953125 0.933594 C 9.082031 0.292969 7.859375 0.488281 7.21875 1.351562 L 1.136719 9.570312 C 0.496094 10.441406 0.683594 11.644531 1.554688 12.28125 C 1.902344 12.539062 2.308594 12.652344 2.710938 12.652344 " clip-rule="nonzero"/></clipPath><clipPath id="31a644f8c1"><rect x="0" width="11" y="0" height="13"/></clipPath><clipPath id="aa1c29975e"><path d="M 33.648438 7.503906 L 43.96875 7.503906 L 43.96875 19.699219 L 33.648438 19.699219 Z M 33.648438 7.503906 " clip-rule="nonzero"/></clipPath><clipPath id="b524355202"><path d="M 40.246094 18.863281 C 40.628906 19.378906 41.222656 19.652344 41.820312 19.652344 C 42.226562 19.652344 42.632812 19.539062 42.976562 19.28125 C 43.851562 18.644531 44.03125 17.441406 43.398438 16.570312 L 37.300781 8.34375 C 36.660156 7.488281 35.445312 7.300781 34.566406 7.925781 C 33.695312 8.5625 33.515625 9.765625 34.144531 10.636719 Z M 40.246094 18.863281 " clip-rule="nonzero"/></clipPath><clipPath id="5b4f2f588c"><path d="M 0.648438 0.503906 L 10.96875 0.503906 L 10.96875 12.679688 L 0.648438 12.679688 Z M 0.648438 0.503906 " clip-rule="nonzero"/></clipPath><clipPath id="9935a59670"><path d="M 7.246094 11.863281 C 7.628906 12.378906 8.222656 12.652344 8.820312 12.652344 C 9.226562 12.652344 9.632812 12.539062 9.976562 12.28125 C 10.851562 11.644531 11.03125 10.441406 10.398438 9.570312 L 4.300781 1.34375 C 3.660156 0.488281 2.445312 0.300781 1.566406 0.925781 C 0.695312 1.5625 0.515625 2.765625 1.144531 3.636719 Z M 7.246094 11.863281 " clip-rule="nonzero"/></clipPath><clipPath id="ba4c520224"><rect x="0" width="11" y="0" height="13"/></clipPath></defs><g clip-path="url(#46ba4ac673)"><g clip-path="url(#987b9225c8)"><g transform="matrix(1, 0, 0, 1, 3, 25)"><g clip-path="url(#d1a1eec4b6)"><g clip-path="url(#2f93e38015)"><g clip-path="url(#7673f6c8c5)"><rect x="-29.4" width="172.8" fill="#020404" height="172.799998" y="-51.4" fill-opacity="1"/></g></g></g></g></g></g><g clip-path="url(#f0f0e1c0e7)"><g clip-path="url(#3ca0d922fa)"><g transform="matrix(1, 0, 0, 1, 65, 0.000000000000001943)"><g clip-path="url(#36e780e744)"><g clip-path="url(#2926a35605)"><g clip-path="url(#70f7470ee3)"><rect x="-91.4" width="172.8" fill="#020404" height="172.799998" y="-26.4" fill-opacity="1"/></g></g></g></g></g></g><g clip-path="url(#b76bcb54a8)"><g clip-path="url(#93cca77bb5)"><g transform="matrix(1, 0, 0, 1, 91, 7)"><g clip-path="url(#31a644f8c1)"><g clip-path="url(#b192cfdc23)"><g clip-path="url(#07cc9d5e35)"><rect x="-117.4" width="172.8" fill="#020404" height="172.799998" y="-33.4" fill-opacity="1"/></g></g></g></g></g></g><g clip-path="url(#aa1c29975e)"><g clip-path="url(#b524355202)"><g transform="matrix(1, 0, 0, 1, 33, 7)"><g clip-path="url(#ba4c520224)"><g clip-path="url(#5b4f2f588c)"><g clip-path="url(#9935a59670)"><rect x="-59.4" width="172.8" fill="#020404" height="172.799998" y="-33.4" fill-opacity="1"/></g></g></g></g></g></g></svg>