<svg xmlns="http://www.w3.org/2000/svg" xmlns:xlink="http://www.w3.org/1999/xlink" width="160" zoomAndPan="magnify" viewBox="0 0 120 119.999999" height="160" preserveAspectRatio="xMidYMid meet" version="1.0"><defs><clipPath id="57095e8537"><path d="M 3.488281 3.488281 L 103.742188 3.488281 L 103.742188 108.101562 L 3.488281 108.101562 Z M 3.488281 3.488281 " clip-rule="nonzero"/></clipPath><clipPath id="85f9721bc3"><path d="M 16.292969 7.207031 L 16.292969 86.042969 C 12.554688 86.042969 9.414062 87.097656 7.179688 88.949219 L 7.179688 18.214844 C 7.179688 11.738281 10.9375 7.207031 16.292969 7.207031 Z M 16.292969 3.546875 C 8.921875 3.546875 3.582031 9.660156 3.546875 18.121094 L 3.546875 97.105469 C 3.582031 103.652344 8.390625 108.039062 15.570312 108.039062 L 101.910156 108.039062 C 102.910156 108.039062 103.726562 107.214844 103.726562 106.191406 L 103.726562 62.203125 L 100.09375 62.203125 L 100.09375 104.371094 L 15.570312 104.371094 C 11.519531 104.371094 7.183594 102.441406 7.183594 97.027344 C 7.183594 91.617188 11.886719 89.703125 16.300781 89.703125 L 18.113281 89.703125 C 19.121094 89.703125 19.945312 88.878906 19.945312 87.859375 L 19.945312 20.039062 L 100.09375 20.039062 L 100.09375 32.875 L 103.726562 32.875 L 103.726562 18.214844 C 103.726562 17.199219 102.910156 16.378906 101.910156 16.378906 L 19.9375 16.378906 L 19.9375 5.375 C 19.9375 4.371094 19.113281 3.546875 18.109375 3.546875 Z M 16.292969 3.546875 " clip-rule="nonzero"/></clipPath><clipPath id="2fe24636b1"><path d="M 0.488281 0.488281 L 100.742188 0.488281 L 100.742188 105.101562 L 0.488281 105.101562 Z M 0.488281 0.488281 " clip-rule="nonzero"/></clipPath><clipPath id="0704b7380b"><path d="M 13.292969 4.207031 L 13.292969 83.042969 C 9.554688 83.042969 6.414062 84.097656 4.179688 85.949219 L 4.179688 15.214844 C 4.179688 8.738281 7.9375 4.207031 13.292969 4.207031 Z M 13.292969 0.546875 C 5.921875 0.546875 0.582031 6.660156 0.546875 15.121094 L 0.546875 94.105469 C 0.582031 100.652344 5.390625 105.039062 12.570312 105.039062 L 98.910156 105.039062 C 99.910156 105.039062 100.726562 104.214844 100.726562 103.191406 L 100.726562 59.203125 L 97.09375 59.203125 L 97.09375 101.371094 L 12.570312 101.371094 C 8.519531 101.371094 4.183594 99.441406 4.183594 94.027344 C 4.183594 88.617188 8.886719 86.703125 13.300781 86.703125 L 15.113281 86.703125 C 16.121094 86.703125 16.945312 85.878906 16.945312 84.859375 L 16.945312 17.039062 L 97.09375 17.039062 L 97.09375 29.875 L 100.726562 29.875 L 100.726562 15.214844 C 100.726562 14.199219 99.910156 13.378906 98.910156 13.378906 L 16.9375 13.378906 L 16.9375 2.375 C 16.9375 1.371094 16.113281 0.546875 15.109375 0.546875 Z M 13.292969 0.546875 " clip-rule="nonzero"/></clipPath><clipPath id="ccfb0ed966"><rect x="0" width="101" y="0" height="106"/></clipPath><clipPath id="7a91028836"><path d="M 27.023438 32.691406 L 116.820312 32.691406 L 116.820312 97.203125 L 27.023438 97.203125 Z M 27.023438 32.691406 " clip-rule="nonzero"/></clipPath><clipPath id="af5d2e5bfb"><path d="M 112.292969 39.675781 L 107.144531 44.863281 L 104.570312 42.273438 L 109.734375 37.089844 C 110.421875 36.398438 111.621094 36.398438 112.300781 37.089844 C 113.015625 37.804688 113.015625 38.960938 112.300781 39.675781 M 77.707031 74.480469 L 71.957031 77.695312 L 75.148438 71.90625 L 101.996094 44.863281 L 104.5625 47.449219 Z M 114.890625 34.492188 C 112.824219 32.414062 109.222656 32.414062 107.15625 34.492188 L 72.375 69.488281 C 72.253906 69.609375 72.160156 69.742188 72.0625 69.890625 L 66.21875 80.546875 L 35.421875 80.546875 C 30.902344 80.546875 27.222656 84.25 27.222656 88.800781 C 27.222656 93.339844 30.902344 97.042969 35.421875 97.042969 L 49.082031 97.042969 L 49.082031 93.382812 L 35.421875 93.382812 C 32.910156 93.382812 30.867188 91.332031 30.867188 88.800781 C 30.867188 86.269531 32.910156 84.21875 35.421875 84.21875 L 67.289062 84.21875 C 67.601562 84.21875 67.890625 84.140625 68.167969 84 L 79.679688 77.59375 C 79.820312 77.53125 79.972656 77.417969 80.085938 77.28125 L 114.851562 42.289062 C 116.980469 40.144531 116.980469 36.664062 114.851562 34.511719 Z M 114.890625 34.492188 " clip-rule="nonzero"/></clipPath><clipPath id="6d03019716"><path d="M 0.121094 0.691406 L 89.820312 0.691406 L 89.820312 65.199219 L 0.121094 65.199219 Z M 0.121094 0.691406 " clip-rule="nonzero"/></clipPath><clipPath id="97f99cc9cc"><path d="M 85.292969 7.675781 L 80.144531 12.863281 L 77.570312 10.273438 L 82.734375 5.089844 C 83.421875 4.398438 84.621094 4.398438 85.300781 5.089844 C 86.015625 5.804688 86.015625 6.960938 85.300781 7.675781 M 50.707031 42.480469 L 44.957031 45.695312 L 48.148438 39.90625 L 74.996094 12.863281 L 77.5625 15.449219 Z M 87.890625 2.492188 C 85.824219 0.414062 82.222656 0.414062 80.15625 2.492188 L 45.375 37.488281 C 45.253906 37.609375 45.160156 37.742188 45.0625 37.890625 L 39.21875 48.546875 L 8.421875 48.546875 C 3.902344 48.546875 0.222656 52.25 0.222656 56.800781 C 0.222656 61.339844 3.902344 65.042969 8.421875 65.042969 L 22.082031 65.042969 L 22.082031 61.382812 L 8.421875 61.382812 C 5.910156 61.382812 3.867188 59.332031 3.867188 56.800781 C 3.867188 54.269531 5.910156 52.21875 8.421875 52.21875 L 40.289062 52.21875 C 40.601562 52.21875 40.890625 52.140625 41.167969 52 L 52.679688 45.59375 C 52.820312 45.53125 52.972656 45.417969 53.085938 45.28125 L 87.851562 10.289062 C 89.980469 8.144531 89.980469 4.664062 87.851562 2.511719 Z M 87.890625 2.492188 " clip-rule="nonzero"/></clipPath><clipPath id="e070e63b83"><rect x="0" width="90" y="0" height="66"/></clipPath><clipPath id="e75a2e2973"><path d="M 52.308594 49.257812 L 74.972656 49.257812 L 74.972656 71.488281 L 52.308594 71.488281 Z M 52.308594 49.257812 " clip-rule="nonzero"/></clipPath><clipPath id="c75cc2e75f"><path d="M 56.367188 53.039062 L 70.941406 53.039062 L 70.941406 56.707031 L 63.65625 56.707031 C 62.65625 56.707031 61.828125 57.53125 61.828125 58.535156 L 61.828125 67.707031 L 56.367188 67.707031 Z M 52.726562 51.210938 L 52.726562 69.542969 C 52.726562 70.550781 53.542969 71.375 54.542969 71.375 L 63.65625 71.375 C 64.664062 71.375 65.472656 70.550781 65.472656 69.542969 L 65.472656 60.382812 L 72.757812 60.382812 C 73.765625 60.382812 74.585938 59.558594 74.585938 58.542969 L 74.585938 51.210938 C 74.585938 50.195312 73.765625 49.371094 72.757812 49.371094 L 54.542969 49.371094 C 53.542969 49.371094 52.726562 50.195312 52.726562 51.210938 " clip-rule="nonzero"/></clipPath><clipPath id="ac48e60aa0"><path d="M 0.558594 0.257812 L 22.640625 0.257812 L 22.640625 22.488281 L 0.558594 22.488281 Z M 0.558594 0.257812 " clip-rule="nonzero"/></clipPath><clipPath id="1dfcc1f3bb"><path d="M 4.367188 4.039062 L 18.941406 4.039062 L 18.941406 7.707031 L 11.65625 7.707031 C 10.65625 7.707031 9.828125 8.53125 9.828125 9.535156 L 9.828125 18.707031 L 4.367188 18.707031 Z M 0.726562 2.210938 L 0.726562 20.542969 C 0.726562 21.550781 1.542969 22.375 2.542969 22.375 L 11.65625 22.375 C 12.664062 22.375 13.472656 21.550781 13.472656 20.542969 L 13.472656 11.382812 L 20.757812 11.382812 C 21.765625 11.382812 22.585938 10.558594 22.585938 9.542969 L 22.585938 2.210938 C 22.585938 1.195312 21.765625 0.371094 20.757812 0.371094 L 2.542969 0.371094 C 1.542969 0.371094 0.726562 1.195312 0.726562 2.210938 " clip-rule="nonzero"/></clipPath><clipPath id="f6f08889db"><rect x="0" width="23" y="0" height="23"/></clipPath><clipPath id="4d6888b021"><path d="M 63.640625 23.539062 L 85.871094 23.539062 L 85.871094 42.28125 L 63.640625 42.28125 Z M 63.640625 23.539062 " clip-rule="nonzero"/></clipPath><clipPath id="9e7deea3b1"><path d="M 67.289062 27.378906 L 81.863281 27.378906 L 81.863281 38.371094 L 67.289062 38.371094 Z M 83.695312 42.046875 C 84.6875 42.046875 85.511719 41.222656 85.511719 40.203125 L 85.511719 25.542969 C 85.511719 24.535156 84.6875 23.710938 83.695312 23.710938 L 65.472656 23.710938 C 64.472656 23.710938 63.65625 24.535156 63.65625 25.542969 L 63.65625 40.203125 C 63.65625 41.214844 64.472656 42.046875 65.472656 42.046875 Z M 83.695312 42.046875 " clip-rule="nonzero"/></clipPath><clipPath id="21cf952e7f"><path d="M 0.640625 0.539062 L 22.679688 0.539062 L 22.679688 19.238281 L 0.640625 19.238281 Z M 0.640625 0.539062 " clip-rule="nonzero"/></clipPath><clipPath id="cf18455157"><path d="M 4.289062 4.378906 L 18.863281 4.378906 L 18.863281 15.371094 L 4.289062 15.371094 Z M 20.695312 19.046875 C 21.6875 19.046875 22.511719 18.222656 22.511719 17.203125 L 22.511719 2.542969 C 22.511719 1.535156 21.6875 0.710938 20.695312 0.710938 L 2.472656 0.710938 C 1.472656 0.710938 0.65625 1.535156 0.65625 2.542969 L 0.65625 17.203125 C 0.65625 18.214844 1.472656 19.046875 2.472656 19.046875 Z M 20.695312 19.046875 " clip-rule="nonzero"/></clipPath><clipPath id="7bdd476aa8"><rect x="0" width="23" y="0" height="20"/></clipPath><clipPath id="7e2932981d"><path d="M 25.28125 23.539062 L 58.410156 23.539062 L 58.410156 53.179688 L 25.28125 53.179688 Z M 25.28125 23.539062 " clip-rule="nonzero"/></clipPath><clipPath id="c618686f7b"><path d="M 54.542969 42.046875 L 47.265625 42.046875 C 46.257812 42.046875 45.4375 42.867188 45.4375 43.875 L 45.4375 49.371094 L 29.039062 49.371094 L 29.039062 27.378906 L 54.542969 27.378906 Z M 56.359375 23.710938 L 27.222656 23.710938 C 26.214844 23.710938 25.40625 24.535156 25.40625 25.542969 L 25.40625 51.210938 C 25.40625 52.210938 26.222656 53.039062 27.222656 53.039062 L 47.265625 53.039062 C 48.265625 53.039062 49.082031 52.21875 49.082031 51.210938 L 49.082031 45.714844 L 56.367188 45.714844 C 57.367188 45.714844 58.195312 44.890625 58.195312 43.875 L 58.195312 25.542969 C 58.195312 24.535156 57.375 23.710938 56.367188 23.710938 " clip-rule="nonzero"/></clipPath><clipPath id="d11408deb7"><path d="M 0.28125 0.539062 L 33.320312 0.539062 L 33.320312 30.039062 L 0.28125 30.039062 Z M 0.28125 0.539062 " clip-rule="nonzero"/></clipPath><clipPath id="e49fcad181"><path d="M 29.542969 19.046875 L 22.265625 19.046875 C 21.257812 19.046875 20.4375 19.867188 20.4375 20.875 L 20.4375 26.371094 L 4.039062 26.371094 L 4.039062 4.378906 L 29.542969 4.378906 Z M 31.359375 0.710938 L 2.222656 0.710938 C 1.214844 0.710938 0.40625 1.535156 0.40625 2.542969 L 0.40625 28.210938 C 0.40625 29.210938 1.222656 30.039062 2.222656 30.039062 L 22.265625 30.039062 C 23.265625 30.039062 24.082031 29.21875 24.082031 28.210938 L 24.082031 22.714844 L 31.367188 22.714844 C 32.367188 22.714844 33.195312 21.890625 33.195312 20.875 L 33.195312 2.542969 C 33.195312 1.535156 32.375 0.710938 31.367188 0.710938 " clip-rule="nonzero"/></clipPath><clipPath id="bd5058c7c1"><rect x="0" width="34" y="0" height="31"/></clipPath><clipPath id="efeac79465"><path d="M 52.726562 93.375 L 56.367188 93.375 L 56.367188 97.035156 L 52.726562 97.035156 Z M 52.726562 93.375 " clip-rule="nonzero"/></clipPath><clipPath id="a60cadd492"><path d="M 0.726562 0.375 L 4.367188 0.375 L 4.367188 4.035156 L 0.726562 4.035156 Z M 0.726562 0.375 " clip-rule="nonzero"/></clipPath><clipPath id="cad74ea0d3"><rect x="0" width="5" y="0" height="5"/></clipPath><clipPath id="74752013fb"><path d="M 25.28125 58.410156 L 49.257812 58.410156 L 49.257812 71.488281 L 25.28125 71.488281 Z M 25.28125 58.410156 " clip-rule="nonzero"/></clipPath><clipPath id="b629924bd4"><path d="M 29.039062 62.203125 L 45.4375 62.203125 L 45.4375 67.699219 L 29.039062 67.699219 Z M 25.40625 69.542969 C 25.40625 70.550781 26.222656 71.375 27.222656 71.375 L 47.257812 71.375 C 48.265625 71.375 49.074219 70.550781 49.074219 69.542969 L 49.074219 60.382812 C 49.074219 59.367188 48.257812 58.535156 47.257812 58.535156 L 27.222656 58.535156 C 26.214844 58.535156 25.40625 59.359375 25.40625 60.382812 Z M 25.40625 69.542969 " clip-rule="nonzero"/></clipPath><clipPath id="3ccb4b8287"><path d="M 0.28125 0.410156 L 24.199219 0.410156 L 24.199219 13.488281 L 0.28125 13.488281 Z M 0.28125 0.410156 " clip-rule="nonzero"/></clipPath><clipPath id="4dc0b9919d"><path d="M 4.039062 4.203125 L 20.4375 4.203125 L 20.4375 9.699219 L 4.039062 9.699219 Z M 0.40625 11.542969 C 0.40625 12.550781 1.222656 13.375 2.222656 13.375 L 22.257812 13.375 C 23.265625 13.375 24.074219 12.550781 24.074219 11.542969 L 24.074219 2.382812 C 24.074219 1.367188 23.257812 0.535156 22.257812 0.535156 L 2.222656 0.535156 C 1.214844 0.535156 0.40625 1.359375 0.40625 2.382812 Z M 0.40625 11.542969 " clip-rule="nonzero"/></clipPath><clipPath id="26330c743a"><rect x="0" width="25" y="0" height="14"/></clipPath><clipPath id="90b2cf7ca4"><path d="M 72.359375 80.203125 L 95 80.203125 L 95 101 L 72.359375 101 Z M 72.359375 80.203125 " clip-rule="nonzero"/></clipPath><clipPath id="697262dde5"><path d="M 90.980469 97.035156 L 76.402344 97.035156 L 76.402344 93.375 L 83.695312 93.375 C 84.6875 93.375 85.511719 92.554688 85.511719 91.539062 L 85.511719 84.210938 L 90.972656 84.210938 Z M 83.695312 80.539062 C 82.6875 80.539062 81.863281 81.363281 81.863281 82.367188 L 81.863281 89.710938 L 74.585938 89.710938 C 73.582031 89.710938 72.757812 90.53125 72.757812 91.539062 L 72.757812 98.875 C 72.757812 99.875 73.582031 100.703125 74.585938 100.703125 L 92.800781 100.703125 C 93.800781 100.703125 94.632812 99.878906 94.632812 98.875 L 94.632812 82.367188 C 94.632812 81.367188 93.808594 80.539062 92.800781 80.539062 Z M 83.695312 80.539062 " clip-rule="nonzero"/></clipPath><clipPath id="c52df204da"><path d="M 0.71875 0.398438 L 22.800781 0.398438 L 22.800781 20.800781 L 0.71875 20.800781 Z M 0.71875 0.398438 " clip-rule="nonzero"/></clipPath><clipPath id="cd2ae10b72"><path d="M 18.980469 17.035156 L 4.402344 17.035156 L 4.402344 13.375 L 11.695312 13.375 C 12.6875 13.375 13.511719 12.554688 13.511719 11.539062 L 13.511719 4.210938 L 18.972656 4.210938 Z M 11.695312 0.539062 C 10.6875 0.539062 9.863281 1.363281 9.863281 2.367188 L 9.863281 9.710938 L 2.585938 9.710938 C 1.582031 9.710938 0.757812 10.53125 0.757812 11.539062 L 0.757812 18.875 C 0.757812 19.875 1.582031 20.703125 2.585938 20.703125 L 20.800781 20.703125 C 21.800781 20.703125 22.632812 19.878906 22.632812 18.875 L 22.632812 2.367188 C 22.632812 1.367188 21.808594 0.539062 20.800781 0.539062 Z M 11.695312 0.539062 " clip-rule="nonzero"/></clipPath><clipPath id="2f51897fbb"><rect x="0" width="23" y="0" height="21"/></clipPath></defs><g clip-path="url(#57095e8537)"><g clip-path="url(#85f9721bc3)"><g transform="matrix(1, 0, 0, 1, 3, 3)"><g clip-path="url(#ccfb0ed966)"><g clip-path="url(#2fe24636b1)"><g clip-path="url(#0704b7380b)"><rect x="-29.4" width="172.8" fill="#ffffff" height="172.799998" y="-29.4" fill-opacity="1"/></g></g></g></g></g></g><g clip-path="url(#7a91028836)"><g clip-path="url(#af5d2e5bfb)"><g transform="matrix(1, 0, 0, 1, 27, 32)"><g clip-path="url(#e070e63b83)"><g clip-path="url(#6d03019716)"><g clip-path="url(#97f99cc9cc)"><rect x="-53.4" width="172.8" fill="#ffffff" height="172.799998" y="-58.4" fill-opacity="1"/></g></g></g></g></g></g><g clip-path="url(#e75a2e2973)"><g clip-path="url(#c75cc2e75f)"><g transform="matrix(1, 0, 0, 1, 52, 49)"><g clip-path="url(#f6f08889db)"><g clip-path="url(#ac48e60aa0)"><g clip-path="url(#1dfcc1f3bb)"><rect x="-78.4" width="172.8" fill="#ffffff" height="172.799998" y="-75.4" fill-opacity="1"/></g></g></g></g></g></g><g clip-path="url(#4d6888b021)"><g clip-path="url(#9e7deea3b1)"><g transform="matrix(1, 0, 0, 1, 63, 23)"><g clip-path="url(#7bdd476aa8)"><g clip-path="url(#21cf952e7f)"><g clip-path="url(#cf18455157)"><rect x="-89.4" width="172.8" fill="#ffffff" height="172.799998" y="-49.4" fill-opacity="1"/></g></g></g></g></g></g><g clip-path="url(#7e2932981d)"><g clip-path="url(#c618686f7b)"><g transform="matrix(1, 0, 0, 1, 25, 23)"><g clip-path="url(#bd5058c7c1)"><g clip-path="url(#d11408deb7)"><g clip-path="url(#e49fcad181)"><rect x="-51.4" width="172.8" fill="#ffffff" height="172.799998" y="-49.4" fill-opacity="1"/></g></g></g></g></g></g><g clip-path="url(#efeac79465)"><g transform="matrix(1, 0, 0, 1, 52, 93)"><g clip-path="url(#cad74ea0d3)"><g clip-path="url(#a60cadd492)"><rect x="-78.4" width="172.8" fill="#ffffff" height="172.799998" y="-119.4" fill-opacity="1"/></g></g></g></g><g clip-path="url(#74752013fb)"><g clip-path="url(#b629924bd4)"><g transform="matrix(1, 0, 0, 1, 25, 58)"><g clip-path="url(#26330c743a)"><g clip-path="url(#3ccb4b8287)"><g clip-path="url(#4dc0b9919d)"><rect x="-51.4" width="172.8" fill="#ffffff" height="172.799998" y="-84.4" fill-opacity="1"/></g></g></g></g></g></g><g clip-path="url(#90b2cf7ca4)"><g clip-path="url(#697262dde5)"><g transform="matrix(1, 0, 0, 1, 72, 80)"><g clip-path="url(#2f51897fbb)"><g clip-path="url(#c52df204da)"><g clip-path="url(#cd2ae10b72)"><rect x="-98.4" width="172.8" fill="#ffffff" height="172.799998" y="-106.4" fill-opacity="1"/></g></g></g></g></g></g></svg>